<svg width="33" height="33" viewBox="0 0 33 33" fill="none" xmlns="http://www.w3.org/2000/svg">
<rect x="1.04883" y="0.648438" width="31" height="31" rx="1.5" stroke="white" stroke-opacity="0.2"/>
<path d="M14.4744 9.48047C14.4744 8.98955 14.0765 8.59158 13.5855 8.59158C13.0946 8.59158 12.6967 8.98955 12.6967 9.48047H14.4744ZM9.88184 12.2953C9.39092 12.2953 8.99295 12.6933 8.99295 13.1842C8.99295 13.6751 9.39092 14.0731 9.88184 14.0731V12.2953ZM23.2149 14.0731C23.7058 14.0731 24.1038 13.6751 24.1038 13.1842C24.1038 12.6933 23.7058 12.2953 23.2149 12.2953V14.0731ZM20.4001 9.48047C20.4001 8.98955 20.0021 8.59158 19.5112 8.59158C19.0203 8.59158 18.6223 8.98955 18.6223 9.48047H20.4001ZM18.6223 22.8126C18.6223 23.3036 19.0203 23.7015 19.5112 23.7015C20.0021 23.7015 20.4001 23.3036 20.4001 22.8126H18.6223ZM23.2149 19.9978C23.7058 19.9978 24.1038 19.5999 24.1038 19.1089C24.1038 18.618 23.7058 18.2201 23.2149 18.2201V19.9978ZM9.88184 18.2201C9.39092 18.2201 8.99295 18.618 8.99295 19.1089C8.99295 19.5999 9.39092 19.9978 9.88184 19.9978V18.2201ZM12.6967 22.8126C12.6967 23.3036 13.0946 23.7015 13.5855 23.7015C14.0765 23.7015 14.4744 23.3036 14.4744 22.8126H12.6967ZM12.6967 9.48047V11.7027H14.4744V9.48047H12.6967ZM12.6967 11.7027C12.6967 12.03 12.4313 12.2953 12.1041 12.2953V14.0731C13.4132 14.0731 14.4744 13.0118 14.4744 11.7027H12.6967ZM12.1041 12.2953H9.88184V14.0731H12.1041V12.2953ZM23.2149 12.2953H20.9927V14.0731H23.2149V12.2953ZM20.9927 12.2953C20.6654 12.2953 20.4001 12.03 20.4001 11.7027H18.6223C18.6223 13.0118 19.6835 14.0731 20.9927 14.0731V12.2953ZM20.4001 11.7027V9.48047H18.6223V11.7027H20.4001ZM20.4001 22.8126V20.5904H18.6223V22.8126H20.4001ZM20.4001 20.5904C20.4001 20.2631 20.6654 19.9978 20.9927 19.9978V18.2201C19.6835 18.2201 18.6223 19.2813 18.6223 20.5904H20.4001ZM20.9927 19.9978H23.2149V18.2201H20.9927V19.9978ZM9.88184 19.9978H12.1041V18.2201H9.88184V19.9978ZM12.1041 19.9978C12.4313 19.9978 12.6967 20.2631 12.6967 20.5904H14.4744C14.4744 19.2813 13.4132 18.2201 12.1041 18.2201V19.9978ZM12.6967 20.5904V22.8126H14.4744V20.5904H12.6967Z" fill="white" fill-opacity="0.87"/>
</svg>
