<svg xmlns="http://www.w3.org/2000/svg" width="912" height="180" viewBox="0 0 912 180" version="1.1"><path d="M 450.027 18.750 L 447.023 21.500 446.896 36 C 446.827 43.975, 446.547 51.953, 446.275 53.729 C 445.804 56.793, 445.671 56.883, 443.667 55.479 C 442.046 54.344, 438.285 54, 427.477 54 L 413.399 54 407.450 59.172 C 404.177 62.017, 398.913 66.841, 395.750 69.891 L 390 75.437 390 106.996 C 390 133.984, 390.226 138.878, 391.562 140.785 C 392.421 142.011, 397.854 147.286, 403.636 152.507 L 414.149 162 440.464 162 C 464.045 162, 467.003 161.818, 468.942 160.248 L 471.105 158.497 470.802 90.853 C 470.507 24.845, 470.452 23.154, 468.500 20.966 C 463.612 15.487, 454.754 14.424, 450.027 18.750 M 70.229 47.669 C 68.040 48.550, 66 53.715, 66 58.378 L 66 62.856 90.109 82.149 C 113.840 101.140, 114.182 101.467, 111.909 102.972 C 110.638 103.812, 105.752 107.671, 101.049 111.547 C 96.347 115.424, 87.039 122.968, 80.365 128.312 C 67.353 138.732, 65.343 141.519, 66.338 147.767 C 67.132 152.752, 70.925 156, 75.955 156 C 80.463 156, 80.353 156.077, 112.108 130.500 C 141.009 107.221, 141 107.230, 141 102.135 C 141 97.440, 138.413 93.987, 129.842 87.242 C 126.904 84.929, 115.950 76.257, 105.500 67.969 C 95.050 59.682, 84.510 51.574, 82.079 49.951 C 77.945 47.192, 73.529 46.342, 70.229 47.669 M 226.973 55.707 C 223.774 57.915, 207.869 71.942, 206.282 73.955 C 205.382 75.096, 205.055 84.033, 205.032 108.127 L 205 140.754 214.250 149.172 C 229.888 163.403, 225.630 162, 253.180 162 L 277.091 162 279.545 159.545 C 281.647 157.444, 282 156.158, 282 150.601 C 282 145.281, 281.595 143.660, 279.750 141.603 C 277.525 139.124, 277.268 139.089, 257 138.484 L 236.500 137.873 233 135.077 L 229.500 132.281 229.231 109.042 L 228.963 85.802 232.864 81.901 L 236.765 78 257.311 78 C 274.648 78, 278.102 77.755, 279.427 76.430 C 281.647 74.210, 282.312 70.770, 281.774 64.284 C 281.396 59.736, 280.790 58.216, 278.598 56.331 C 275.929 54.035, 275.545 54, 252.667 54 C 232.407 54, 229.130 54.218, 226.973 55.707 M 311.331 59.184 C 308.124 62.036, 302.913 66.859, 299.750 69.903 L 294 75.437 294 107.491 L 294 139.544 302.250 147.591 C 306.788 152.017, 312.203 157.070, 314.285 158.819 L 318.070 162 335.400 162 C 355.114 162, 352.473 162.942, 365.837 151.143 C 369.872 147.580, 373.880 143.587, 374.743 142.270 C 376.097 140.203, 376.289 135.393, 376.144 107.187 L 375.976 74.500 370.238 69.155 C 367.082 66.215, 361.575 61.607, 358 58.915 L 351.500 54.019 334.331 54.010 L 317.161 54 311.331 59.184 M 503.340 57.888 C 500.678 60.026, 495.470 64.638, 491.767 68.138 L 485.033 74.500 484.827 107.279 L 484.620 140.058 490.560 146.137 C 493.827 149.480, 499.111 154.417, 502.302 157.108 L 508.104 162 533.329 162 C 564.342 162, 563 162.516, 563 150.598 C 563 139.660, 562.307 139, 550.829 139 C 546.147 139, 536.126 138.703, 528.560 138.340 C 514.918 137.686, 514.777 137.655, 511.607 134.590 C 508.664 131.746, 508.441 131.082, 508.801 126.250 L 509.193 121 527.347 120.995 L 545.500 120.989 554 113.430 C 566.634 102.194, 565.952 103.632, 565.978 88.184 C 565.990 80.861, 565.560 74.047, 565.023 73.043 C 564.070 71.262, 551.643 60.634, 545.346 56.214 C 542.389 54.139, 541.123 54, 525.185 54 L 508.180 54 503.340 57.888 M 584.109 55.711 C 581.277 58.006, 579.901 64.146, 580.955 69.787 C 582.382 77.425, 582.414 77.436, 605.649 78 L 626.232 78.500 608.325 103.500 C 598.476 117.250, 588.288 131.418, 585.685 134.984 C 580.154 142.559, 578.594 147.410, 579.520 154.146 C 580.625 162.183, 579.762 162, 616.612 162 C 655.366 162, 653.500 162.576, 653.500 150.614 C 653.500 138.926, 653.669 139.014, 630.692 138.731 C 616.089 138.551, 612.084 138.223, 612.463 137.236 C 612.730 136.540, 621.449 123.714, 631.838 108.733 C 656.872 72.636, 654.992 76.073, 654.996 66.405 C 655.002 53.805, 657.251 54.558, 618.555 54.211 C 588.822 53.945, 586.146 54.062, 584.109 55.711 M 673 55.965 C 670.695 57.735, 670.500 58.521, 670.500 66.029 C 670.500 78.240, 669.980 78, 696.482 78 L 717.743 78 721.875 81.750 L 726.008 85.500 725.359 92.750 L 724.710 100 705.505 100 L 686.300 100 682.400 102.856 C 680.255 104.426, 675.874 108.483, 672.664 111.871 L 666.829 118.031 667.164 129.491 L 667.500 140.951 674.500 148.043 C 678.350 151.944, 683.585 156.680, 686.134 158.567 L 690.768 162 717.695 162 C 743.412 162, 744.721 161.908, 746.811 159.961 C 748.996 157.926, 749 157.844, 749 115.806 L 749 73.690 745.174 70.051 C 743.070 68.050, 737.643 63.619, 733.113 60.206 L 724.877 54 700.188 54.022 C 677.396 54.043, 675.308 54.192, 673 55.965 M 765.750 55.572 C 763.844 56.606, 762.972 57.898, 762.910 59.782 C 762.861 61.277, 762.879 83.875, 762.950 110 L 763.079 157.500 765.595 159.750 C 767.649 161.586, 769.287 162, 774.500 162 C 779.811 162, 781.362 161.593, 783.694 159.587 L 786.500 157.175 786.763 109.337 C 786.968 71.846, 786.746 60.959, 785.737 59 C 783.402 54.471, 771.533 52.435, 765.750 55.572 M 793 56 C 791.331 57.669, 791 59.333, 791 66.066 C 791 77.399, 791.463 78, 800.191 78 C 806.322 78, 807.811 78.368, 810.906 80.649 C 817.309 85.369, 817 83.283, 817 121.737 L 817 157.091 819.455 159.545 C 821.515 161.606, 822.872 162, 827.907 162 C 834.984 162, 838.367 160.685, 839.890 157.343 C 840.635 155.706, 841 143.494, 841 120.156 L 841 85.406 844.792 81.703 C 848.499 78.084, 848.757 78, 856.257 78 C 863.414 78, 864.168 78.209, 867.465 81.104 L 871 84.207 871 120.022 C 871 139.720, 871.280 156.565, 871.621 157.455 C 872.665 160.176, 877.591 162, 883.895 162 C 888.722 162, 890.413 161.549, 892.585 159.680 L 895.282 157.360 895.103 115.954 C 894.896 67.922, 896.727 74.805, 880.717 61.891 L 870.933 54 857.392 54 L 843.852 54 837.696 59.750 C 834.311 62.913, 831.067 66.091, 830.488 66.813 C 829.662 67.842, 828.067 66.872, 823.088 62.313 C 819.597 59.116, 815.787 55.953, 814.620 55.285 C 813.417 54.596, 808.716 54.056, 803.750 54.035 C 796.304 54.005, 794.702 54.298, 793 56 M 19.357 63.001 C 16.157 64.279, 14 67.979, 14 72.194 C 14 76.604, 15.690 78.411, 29.808 89.103 C 34.927 92.980, 38.945 96.666, 38.735 97.294 C 38.526 97.922, 33.663 102.005, 27.927 106.368 C 16.639 114.956, 14.017 117.962, 14.007 122.327 C 13.998 126.115, 18.885 131.002, 22.673 130.993 C 26.232 130.985, 27.405 130.181, 45.753 115.168 C 61.378 102.384, 63.702 99.471, 62.531 94.139 C 61.666 90.204, 59.357 88.008, 43.674 76.209 C 25.147 62.271, 23.469 61.359, 19.357 63.001 M 322.180 81.578 L 318 85.156 318.085 108.328 L 318.169 131.500 321.835 134.612 C 325.220 137.487, 326.207 137.764, 334.747 138.237 L 343.994 138.749 348.497 135.241 L 353 131.732 353 108.483 L 353 85.233 348.997 81.616 C 345.001 78.006, 344.978 78, 335.677 78 C 326.436 78, 326.326 78.029, 322.180 81.578 M 418.118 82.118 L 414 86.235 414 108.415 L 414 130.594 417.792 134.297 L 421.584 138 431.715 138 C 441.102 138, 442.068 137.814, 444.862 135.463 L 447.877 132.926 447.964 109.281 L 448.051 85.636 444.322 81.818 L 440.594 78 431.415 78 L 422.235 78 418.118 82.118 M 513.003 81.616 C 509.070 85.169, 509 85.354, 509 92.116 L 509 99 523.974 99 L 538.949 99 540.446 96.105 C 541.269 94.513, 542.230 91.412, 542.582 89.215 C 543.094 86.008, 542.834 84.854, 541.260 83.360 C 535.815 78.191, 535.270 78, 525.991 78 C 517.072 78, 516.976 78.026, 513.003 81.616 M 693.247 123.250 C 692.699 123.938, 691.475 126.024, 690.529 127.887 L 688.807 131.274 692.154 134.596 L 695.500 137.917 708 138.012 C 714.875 138.065, 721.737 138.083, 723.250 138.054 L 726 138 726 130 L 726 122 710.122 122 C 698.619 122, 693.970 122.344, 693.247 123.250" stroke="none" fill="#f8f8f8" fill-rule="evenodd"/><path d="M 0 90.001 L 0 180.002 456.250 179.751 L 912.500 179.500 912.755 89.750 L 913.011 -0 456.505 -0 L 0 0 0 90.001 M 0.479 90.500 C 0.479 140, 0.601 160.104, 0.750 135.175 C 0.899 110.246, 0.899 69.746, 0.750 45.175 C 0.601 20.604, 0.479 41, 0.479 90.500 M 450.027 18.750 L 447.023 21.500 446.896 36 C 446.827 43.975, 446.547 51.953, 446.275 53.729 C 445.804 56.793, 445.671 56.883, 443.667 55.479 C 442.046 54.344, 438.285 54, 427.477 54 L 413.399 54 407.450 59.172 C 404.177 62.017, 398.913 66.841, 395.750 69.891 L 390 75.437 390 106.996 C 390 133.984, 390.226 138.878, 391.562 140.785 C 392.421 142.011, 397.854 147.286, 403.636 152.507 L 414.149 162 440.464 162 C 464.045 162, 467.003 161.818, 468.942 160.248 L 471.105 158.497 470.802 90.853 C 470.507 24.845, 470.452 23.154, 468.500 20.966 C 463.612 15.487, 454.754 14.424, 450.027 18.750 M 70.229 47.669 C 68.040 48.550, 66 53.715, 66 58.378 L 66 62.856 90.109 82.149 C 113.840 101.140, 114.182 101.467, 111.909 102.972 C 110.638 103.812, 105.752 107.671, 101.049 111.547 C 96.347 115.424, 87.039 122.968, 80.365 128.312 C 67.353 138.732, 65.343 141.519, 66.338 147.767 C 67.132 152.752, 70.925 156, 75.955 156 C 80.463 156, 80.353 156.077, 112.108 130.500 C 141.009 107.221, 141 107.230, 141 102.135 C 141 97.440, 138.413 93.987, 129.842 87.242 C 126.904 84.929, 115.950 76.257, 105.500 67.969 C 95.050 59.682, 84.510 51.574, 82.079 49.951 C 77.945 47.192, 73.529 46.342, 70.229 47.669 M 226.973 55.707 C 223.774 57.915, 207.869 71.942, 206.282 73.955 C 205.382 75.096, 205.055 84.033, 205.032 108.127 L 205 140.754 214.250 149.172 C 229.888 163.403, 225.630 162, 253.180 162 L 277.091 162 279.545 159.545 C 281.647 157.444, 282 156.158, 282 150.601 C 282 145.281, 281.595 143.660, 279.750 141.603 C 277.525 139.124, 277.268 139.089, 257 138.484 L 236.500 137.873 233 135.077 L 229.500 132.281 229.231 109.042 L 228.963 85.802 232.864 81.901 L 236.765 78 257.311 78 C 274.648 78, 278.102 77.755, 279.427 76.430 C 281.647 74.210, 282.312 70.770, 281.774 64.284 C 281.396 59.736, 280.790 58.216, 278.598 56.331 C 275.929 54.035, 275.545 54, 252.667 54 C 232.407 54, 229.130 54.218, 226.973 55.707 M 311.331 59.184 C 308.124 62.036, 302.913 66.859, 299.750 69.903 L 294 75.437 294 107.491 L 294 139.544 302.250 147.591 C 306.788 152.017, 312.203 157.070, 314.285 158.819 L 318.070 162 335.400 162 C 355.114 162, 352.473 162.942, 365.837 151.143 C 369.872 147.580, 373.880 143.587, 374.743 142.270 C 376.097 140.203, 376.289 135.393, 376.144 107.187 L 375.976 74.500 370.238 69.155 C 367.082 66.215, 361.575 61.607, 358 58.915 L 351.500 54.019 334.331 54.010 L 317.161 54 311.331 59.184 M 503.340 57.888 C 500.678 60.026, 495.470 64.638, 491.767 68.138 L 485.033 74.500 484.827 107.279 L 484.620 140.058 490.560 146.137 C 493.827 149.480, 499.111 154.417, 502.302 157.108 L 508.104 162 533.329 162 C 564.342 162, 563 162.516, 563 150.598 C 563 139.660, 562.307 139, 550.829 139 C 546.147 139, 536.126 138.703, 528.560 138.340 C 514.918 137.686, 514.777 137.655, 511.607 134.590 C 508.664 131.746, 508.441 131.082, 508.801 126.250 L 509.193 121 527.347 120.995 L 545.500 120.989 554 113.430 C 566.634 102.194, 565.952 103.632, 565.978 88.184 C 565.990 80.861, 565.560 74.047, 565.023 73.043 C 564.070 71.262, 551.643 60.634, 545.346 56.214 C 542.389 54.139, 541.123 54, 525.185 54 L 508.180 54 503.340 57.888 M 584.109 55.711 C 581.277 58.006, 579.901 64.146, 580.955 69.787 C 582.382 77.425, 582.414 77.436, 605.649 78 L 626.232 78.500 608.325 103.500 C 598.476 117.250, 588.288 131.418, 585.685 134.984 C 580.154 142.559, 578.594 147.410, 579.520 154.146 C 580.625 162.183, 579.762 162, 616.612 162 C 655.366 162, 653.500 162.576, 653.500 150.614 C 653.500 138.926, 653.669 139.014, 630.692 138.731 C 616.089 138.551, 612.084 138.223, 612.463 137.236 C 612.730 136.540, 621.449 123.714, 631.838 108.733 C 656.872 72.636, 654.992 76.073, 654.996 66.405 C 655.002 53.805, 657.251 54.558, 618.555 54.211 C 588.822 53.945, 586.146 54.062, 584.109 55.711 M 673 55.965 C 670.695 57.735, 670.500 58.521, 670.500 66.029 C 670.500 78.240, 669.980 78, 696.482 78 L 717.743 78 721.875 81.750 L 726.008 85.500 725.359 92.750 L 724.710 100 705.505 100 L 686.300 100 682.400 102.856 C 680.255 104.426, 675.874 108.483, 672.664 111.871 L 666.829 118.031 667.164 129.491 L 667.500 140.951 674.500 148.043 C 678.350 151.944, 683.585 156.680, 686.134 158.567 L 690.768 162 717.695 162 C 743.412 162, 744.721 161.908, 746.811 159.961 C 748.996 157.926, 749 157.844, 749 115.806 L 749 73.690 745.174 70.051 C 743.070 68.050, 737.643 63.619, 733.113 60.206 L 724.877 54 700.188 54.022 C 677.396 54.043, 675.308 54.192, 673 55.965 M 765.750 55.572 C 763.844 56.606, 762.972 57.898, 762.910 59.782 C 762.861 61.277, 762.879 83.875, 762.950 110 L 763.079 157.500 765.595 159.750 C 767.649 161.586, 769.287 162, 774.500 162 C 779.811 162, 781.362 161.593, 783.694 159.587 L 786.500 157.175 786.763 109.337 C 786.968 71.846, 786.746 60.959, 785.737 59 C 783.402 54.471, 771.533 52.435, 765.750 55.572 M 793 56 C 791.331 57.669, 791 59.333, 791 66.066 C 791 77.399, 791.463 78, 800.191 78 C 806.322 78, 807.811 78.368, 810.906 80.649 C 817.309 85.369, 817 83.283, 817 121.737 L 817 157.091 819.455 159.545 C 821.515 161.606, 822.872 162, 827.907 162 C 834.984 162, 838.367 160.685, 839.890 157.343 C 840.635 155.706, 841 143.494, 841 120.156 L 841 85.406 844.792 81.703 C 848.499 78.084, 848.757 78, 856.257 78 C 863.414 78, 864.168 78.209, 867.465 81.104 L 871 84.207 871 120.022 C 871 139.720, 871.280 156.565, 871.621 157.455 C 872.665 160.176, 877.591 162, 883.895 162 C 888.722 162, 890.413 161.549, 892.585 159.680 L 895.282 157.360 895.103 115.954 C 894.896 67.922, 896.727 74.805, 880.717 61.891 L 870.933 54 857.392 54 L 843.852 54 837.696 59.750 C 834.311 62.913, 831.067 66.091, 830.488 66.813 C 829.662 67.842, 828.067 66.872, 823.088 62.313 C 819.597 59.116, 815.787 55.953, 814.620 55.285 C 813.417 54.596, 808.716 54.056, 803.750 54.035 C 796.304 54.005, 794.702 54.298, 793 56 M 19.357 63.001 C 16.157 64.279, 14 67.979, 14 72.194 C 14 76.604, 15.690 78.411, 29.808 89.103 C 34.927 92.980, 38.945 96.666, 38.735 97.294 C 38.526 97.922, 33.663 102.005, 27.927 106.368 C 16.639 114.956, 14.017 117.962, 14.007 122.327 C 13.998 126.115, 18.885 131.002, 22.673 130.993 C 26.232 130.985, 27.405 130.181, 45.753 115.168 C 61.378 102.384, 63.702 99.471, 62.531 94.139 C 61.666 90.204, 59.357 88.008, 43.674 76.209 C 25.147 62.271, 23.469 61.359, 19.357 63.001 M 322.180 81.578 L 318 85.156 318.085 108.328 L 318.169 131.500 321.835 134.612 C 325.220 137.487, 326.207 137.764, 334.747 138.237 L 343.994 138.749 348.497 135.241 L 353 131.732 353 108.483 L 353 85.233 348.997 81.616 C 345.001 78.006, 344.978 78, 335.677 78 C 326.436 78, 326.326 78.029, 322.180 81.578 M 418.118 82.118 L 414 86.235 414 108.415 L 414 130.594 417.792 134.297 L 421.584 138 431.715 138 C 441.102 138, 442.068 137.814, 444.862 135.463 L 447.877 132.926 447.964 109.281 L 448.051 85.636 444.322 81.818 L 440.594 78 431.415 78 L 422.235 78 418.118 82.118 M 513.003 81.616 C 509.070 85.169, 509 85.354, 509 92.116 L 509 99 523.974 99 L 538.949 99 540.446 96.105 C 541.269 94.513, 542.230 91.412, 542.582 89.215 C 543.094 86.008, 542.834 84.854, 541.260 83.360 C 535.815 78.191, 535.270 78, 525.991 78 C 517.072 78, 516.976 78.026, 513.003 81.616 M 693.247 123.250 C 692.699 123.938, 691.475 126.024, 690.529 127.887 L 688.807 131.274 692.154 134.596 L 695.500 137.917 708 138.012 C 714.875 138.065, 721.737 138.083, 723.250 138.054 L 726 138 726 130 L 726 122 710.122 122 C 698.619 122, 693.970 122.344, 693.247 123.250" stroke="none" fill="#1b1b21" fill-rule="evenodd"/></svg>