<?xml version="1.0" standalone="no"?>
<!DOCTYPE svg PUBLIC "-//W3C//DTD SVG 20010904//EN"
 "http://www.w3.org/TR/2001/REC-SVG-20010904/DTD/svg10.dtd">
<svg version="1.0" xmlns="http://www.w3.org/2000/svg"
 width="300.000000pt" height="300.000000pt" viewBox="0 0 300.000000 300.000000"
 preserveAspectRatio="xMidYMid meet">
<metadata>
Created by potrace 1.10, written by Peter Selinger 2001-2011
</metadata>
<g transform="translate(0.000000,300.000000) scale(0.100000,-0.100000)"
fill="#000000" stroke="none">
<path d="M302 2354 c-49 -34 -66 -109 -37 -164 33 -64 -58 -60 1235 -60 1049
0 1178 2 1198 16 49 34 66 109 37 164 -33 64 58 60 -1235 60 -1049 0 -1178 -2
-1198 -16z m2379 -43 c33 -27 33 -95 0 -122 -22 -18 -60 -19 -1181 -19 -1121
0 -1159 1 -1181 19 -18 14 -24 29 -24 61 0 32 6 47 24 61 22 18 60 19 1181 19
1121 0 1159 -1 1181 -19z"/>
<path d="M302 1604 c-49 -34 -66 -109 -37 -164 33 -64 -58 -60 1235 -60 1293
0 1202 -4 1235 60 29 55 12 130 -37 164 -20 14 -149 16 -1198 16 -1049 0
-1178 -2 -1198 -16z m2379 -43 c33 -27 33 -95 0 -122 -22 -18 -60 -19 -1181
-19 -1121 0 -1159 1 -1181 19 -18 14 -24 29 -24 61 0 32 6 47 24 61 22 18 60
19 1181 19 1121 0 1159 -1 1181 -19z"/>
<path d="M302 854 c-49 -34 -66 -109 -37 -164 33 -64 -58 -60 1235 -60 1293 0
1202 -4 1235 60 29 55 12 130 -37 164 -20 14 -149 16 -1198 16 -1049 0 -1178
-2 -1198 -16z m2379 -43 c33 -27 33 -95 0 -122 -22 -18 -60 -19 -1181 -19
-1121 0 -1159 1 -1181 19 -18 14 -24 29 -24 61 0 32 6 47 24 61 22 18 60 19
1181 19 1121 0 1159 -1 1181 -19z"/>
</g>
</svg>
