<svg width="32" height="32" viewBox="0 0 32 32" fill="none" xmlns="http://www.w3.org/2000/svg">
<rect x="0.5" y="0.5" width="31" height="31" rx="1.5" fill="white" stroke="#D3DCE6"/>
<path d="M13.9256 9.33203C13.9256 8.84111 13.5276 8.44314 13.0367 8.44314C12.5458 8.44314 12.1478 8.84111 12.1478 9.33203H13.9256ZM9.33301 12.1468C8.84209 12.1468 8.44412 12.5448 8.44412 13.0357C8.44412 13.5267 8.84209 13.9246 9.33301 13.9246V12.1468ZM22.6661 13.9246C23.157 13.9246 23.5549 13.5267 23.5549 13.0357C23.5549 12.5448 23.157 12.1468 22.6661 12.1468V13.9246ZM19.8512 9.33203C19.8512 8.84111 19.4533 8.44314 18.9623 8.44314C18.4714 8.44314 18.0735 8.84111 18.0735 9.33203H19.8512ZM18.0735 22.6642C18.0735 23.1551 18.4714 23.5531 18.9623 23.5531C19.4533 23.5531 19.8512 23.1551 19.8512 22.6642H18.0735ZM22.6661 19.8494C23.157 19.8494 23.5549 19.4514 23.5549 18.9605C23.5549 18.4696 23.157 18.0716 22.6661 18.0716V19.8494ZM9.33301 18.0716C8.84209 18.0716 8.44412 18.4696 8.44412 18.9605C8.44412 19.4514 8.84209 19.8494 9.33301 19.8494V18.0716ZM12.1478 22.6642C12.1478 23.1551 12.5458 23.5531 13.0367 23.5531C13.5276 23.5531 13.9256 23.1551 13.9256 22.6642H12.1478ZM12.1478 9.33203V11.5543H13.9256V9.33203H12.1478ZM12.1478 11.5543C12.1478 11.8815 11.8825 12.1468 11.5552 12.1468V13.9246C12.8643 13.9246 13.9256 12.8634 13.9256 11.5543H12.1478ZM11.5552 12.1468H9.33301V13.9246H11.5552V12.1468ZM22.6661 12.1468H20.4438V13.9246H22.6661V12.1468ZM20.4438 12.1468C20.1165 12.1468 19.8512 11.8815 19.8512 11.5543H18.0735C18.0735 12.8634 19.1347 13.9246 20.4438 13.9246V12.1468ZM19.8512 11.5543V9.33203H18.0735V11.5543H19.8512ZM19.8512 22.6642V20.442H18.0735V22.6642H19.8512ZM19.8512 20.442C19.8512 20.1147 20.1165 19.8494 20.4438 19.8494V18.0716C19.1347 18.0716 18.0735 19.1329 18.0735 20.442H19.8512ZM20.4438 19.8494H22.6661V18.0716H20.4438V19.8494ZM9.33301 19.8494H11.5552V18.0716H9.33301V19.8494ZM11.5552 19.8494C11.8825 19.8494 12.1478 20.1147 12.1478 20.442H13.9256C13.9256 19.1329 12.8643 18.0716 11.5552 18.0716V19.8494ZM12.1478 20.442V22.6642H13.9256V20.442H12.1478Z" fill="#25265E" fill-opacity="0.67"/>
</svg>
