<svg xmlns="http://www.w3.org/2000/svg" width="100%" height="180" viewBox="0 0 912 180" version="1.1"><path d="M 450.093 18.750 L 447.155 21.500 446.626 39 C 446.335 48.625, 446.076 56.638, 446.049 56.807 C 446.022 56.975, 445 56.413, 443.777 55.557 C 442.021 54.327, 438.600 54, 427.477 54 L 413.399 54 407.450 59.172 C 404.177 62.017, 398.913 66.841, 395.750 69.891 L 390 75.437 390 106.996 C 390 133.984, 390.226 138.878, 391.562 140.785 C 392.421 142.011, 397.854 147.286, 403.636 152.507 L 414.149 162 440.464 162 C 464.036 162, 467.003 161.818, 468.937 160.250 L 471.095 158.500 470.798 90.854 C 470.507 24.841, 470.452 23.154, 468.500 20.966 C 463.613 15.487, 454.723 14.417, 450.093 18.750 " stroke="none" fill="#686d72" fill-rule="evenodd"/><path d="M 70.229 47.669 C 68.035 48.552, 66 53.720, 66 58.410 L 66 62.920 90.103 82.186 C 113.803 101.130, 114.167 101.477, 111.902 102.976 C 110.635 103.814, 105.752 107.671, 101.049 111.547 C 96.347 115.424, 87.039 122.968, 80.365 128.312 C 67.353 138.732, 65.343 141.519, 66.338 147.767 C 67.132 152.752, 70.925 156, 75.955 156 C 80.463 156, 80.353 156.077, 112.108 130.500 C 141.009 107.221, 141 107.230, 141 102.135 C 141 97.118, 138.321 93.843, 126.880 84.874 C 122.408 81.368, 111.493 72.742, 102.625 65.704 C 93.756 58.666, 84.510 51.579, 82.079 49.954 C 77.944 47.192, 73.531 46.341, 70.229 47.669 " stroke="none" fill="#686d72" fill-rule="evenodd"/><path d="M 226.973 55.707 C 223.756 57.927, 207.869 71.822, 206.250 73.831 C 205.307 75.001, 205 83.410, 205 108.053 L 205 140.723 214.750 149.670 C 229.470 163.178, 225.791 162, 253.268 162 L 277.091 162 279.545 159.545 C 281.675 157.416, 282 156.182, 282 150.220 C 282 144.312, 281.672 143.041, 279.664 141.154 C 277.461 139.085, 276.165 138.929, 256.914 138.417 L 236.500 137.874 233 135.078 L 229.500 132.281 229.231 109.042 L 228.963 85.802 232.864 81.901 L 236.765 78 257.132 77.985 C 268.335 77.976, 277.995 77.639, 278.600 77.235 C 281.903 75.029, 283.275 63.893, 280.890 58.657 C 278.964 54.431, 276.308 54, 252.175 54 C 232.379 54, 229.126 54.220, 226.973 55.707 " stroke="none" fill="#686d72" fill-rule="evenodd"/><path d="M 311.331 59.184 C 308.124 62.036, 302.913 66.859, 299.750 69.903 L 294 75.437 294 107.491 L 294 139.544 302.250 147.591 C 306.788 152.017, 312.203 157.070, 314.285 158.819 L 318.070 162 335.312 162 C 349.786 162, 352.952 161.731, 355.027 160.326 C 359.417 157.353, 374.024 143.824, 375.184 141.656 C 375.962 140.202, 376.258 129.515, 376.143 107.026 L 375.976 74.500 370.238 69.155 C 367.082 66.215, 361.575 61.607, 358 58.915 L 351.500 54.019 334.331 54.010 L 317.161 54 311.331 59.184 " stroke="none" fill="#686d72" fill-rule="evenodd"/><path d="M 503.340 57.888 C 500.678 60.026, 495.479 64.638, 491.786 68.138 L 485.072 74.500 484.786 107.217 L 484.500 139.934 490.500 146.075 C 493.800 149.452, 499.111 154.417, 502.302 157.108 L 508.104 162 533.329 162 C 564.342 162, 563 162.516, 563 150.598 C 563 139.956, 562.121 139, 552.330 139 C 548.474 139, 538.452 138.703, 530.060 138.340 L 514.802 137.679 511.606 134.590 C 508.664 131.746, 508.441 131.082, 508.801 126.250 L 509.193 121 527.347 120.995 L 545.500 120.989 554 113.430 C 566.634 102.194, 565.952 103.632, 565.978 88.184 C 565.990 80.861, 565.560 74.047, 565.023 73.043 C 564.070 71.262, 551.643 60.634, 545.346 56.214 C 542.389 54.139, 541.123 54, 525.185 54 L 508.180 54 503.340 57.888 " stroke="none" fill="#686d72" fill-rule="evenodd"/><path d="M 584.109 55.711 C 579.639 59.333, 579.208 71.968, 583.420 75.925 C 585.426 77.810, 587.059 77.977, 605.901 78.229 L 626.218 78.500 608.305 103.500 C 598.453 117.250, 588.286 131.353, 585.710 134.841 C 580.336 142.119, 578.540 147.565, 579.393 153.990 C 580.480 162.171, 579.690 162, 616.500 162 C 655.382 162, 653.500 162.579, 653.500 150.614 C 653.500 138.895, 653.642 138.969, 630.672 138.710 C 616.099 138.546, 612.086 138.222, 612.463 137.238 C 612.729 136.544, 621.096 124.237, 631.057 109.890 C 656.881 72.695, 655 76.107, 655 66.459 C 655 53.796, 657.267 54.558, 618.555 54.211 C 588.822 53.945, 586.146 54.062, 584.109 55.711 " stroke="none" fill="#686d72" fill-rule="evenodd"/><path d="M 673 55.965 C 670.695 57.735, 670.500 58.521, 670.500 66.029 C 670.500 78.240, 669.980 78, 696.482 78 L 717.743 78 721.875 81.750 L 726.008 85.500 725.359 92.750 L 724.710 100 705.505 100 L 686.300 100 682.400 102.887 C 680.255 104.474, 675.872 108.466, 672.661 111.756 L 666.821 117.738 667.161 129.345 L 667.500 140.951 674.500 148.043 C 678.350 151.944, 683.585 156.680, 686.134 158.567 L 690.768 162 717.884 162 C 743.667 162, 745.098 161.902, 747 160 C 748.937 158.063, 749 156.667, 749 115.845 L 749 73.690 745.174 70.051 C 743.070 68.050, 737.643 63.619, 733.113 60.206 L 724.877 54 700.188 54.022 C 677.396 54.043, 675.308 54.192, 673 55.965 " stroke="none" fill="#686d72" fill-rule="evenodd"/><path d="M 765.750 55.572 C 763.844 56.606, 762.972 57.898, 762.910 59.782 C 762.861 61.277, 762.879 83.875, 762.950 110 L 763.079 157.500 765.595 159.750 C 767.649 161.586, 769.287 162, 774.500 162 C 779.811 162, 781.362 161.593, 783.694 159.587 L 786.500 157.175 786.763 109.337 C 786.968 71.846, 786.746 60.959, 785.737 59 C 783.402 54.471, 771.533 52.435, 765.750 55.572 " stroke="none" fill="#686d72" fill-rule="evenodd"/><path d="M 793 56 C 791.331 57.669, 791 59.333, 791 66.066 C 791 77.399, 791.463 78, 800.191 78 C 806.322 78, 807.811 78.368, 810.906 80.649 C 817.309 85.369, 817 83.283, 817 121.737 L 817 157.091 819.455 159.545 C 821.515 161.606, 822.872 162, 827.907 162 C 834.984 162, 838.367 160.685, 839.890 157.343 C 840.635 155.706, 841 143.494, 841 120.156 L 841 85.406 844.792 81.703 C 848.499 78.084, 848.757 78, 856.257 78 C 863.414 78, 864.168 78.209, 867.465 81.104 L 871 84.207 871 120.022 C 871 139.720, 871.280 156.565, 871.621 157.455 C 872.665 160.176, 877.591 162, 883.895 162 C 888.790 162, 890.403 161.557, 892.694 159.586 L 895.500 157.172 895.199 115.846 C 894.849 67.898, 896.663 74.654, 880.699 61.857 L 870.897 54 857.440 54 L 843.983 54 837.741 59.704 C 834.309 62.841, 831.050 65.983, 830.500 66.687 C 829.736 67.664, 827.633 66.316, 821.599 60.983 L 813.697 54 804.349 54 C 796.333 54, 794.715 54.285, 793 56 " stroke="none" fill="#686d72" fill-rule="evenodd"/><path d="M 19.357 63.001 C 16.157 64.279, 14 67.979, 14 72.194 C 14 76.604, 15.690 78.411, 29.808 89.103 C 34.927 92.980, 38.945 96.666, 38.735 97.294 C 38.526 97.922, 33.663 102.005, 27.927 106.368 C 16.639 114.956, 14.017 117.962, 14.007 122.327 C 13.998 126.115, 18.885 131.002, 22.673 130.993 C 26.232 130.985, 27.405 130.181, 45.753 115.168 C 61.336 102.417, 63.700 99.466, 62.544 94.201 C 61.680 90.266, 60.069 88.683, 45.771 77.717 C 26.859 63.214, 23.505 61.345, 19.357 63.001 " stroke="none" fill="#686d72" fill-rule="evenodd"/><path d="M 322.180 81.578 L 318 85.156 318.085 108.328 L 318.169 131.500 321.835 134.612 C 325.220 137.487, 326.207 137.764, 334.747 138.237 L 343.994 138.749 348.497 135.241 L 353 131.732 353 108.483 L 353 85.233 348.997 81.616 C 345.001 78.006, 344.978 78, 335.677 78 C 326.436 78, 326.326 78.029, 322.180 81.578 " stroke="none" fill="white" fill-rule="evenodd"/><path d="M 418.156 82.197 L 414 86.395 414 108.494 L 414 130.594 417.792 134.297 L 421.584 138 431.715 138 C 441.073 138, 442.074 137.808, 444.829 135.490 L 447.812 132.981 447.945 109.323 L 448.079 85.665 444.337 81.833 L 440.594 78 431.453 78 L 422.312 78 418.156 82.197 " stroke="none" fill="white" fill-rule="evenodd"/><path d="M 513.003 81.616 C 509.070 85.169, 509 85.354, 509 92.116 L 509 99 523.974 99 L 538.949 99 540.354 96.250 C 542.278 92.484, 543.273 87.434, 542.543 85.134 C 542.209 84.083, 540.160 82.048, 537.990 80.612 C 534.510 78.309, 533.034 78, 525.524 78 C 517.141 78, 516.942 78.057, 513.003 81.616 " stroke="none" fill="white" fill-rule="evenodd"/><path d="M 693.247 123.250 C 692.699 123.938, 691.463 126.049, 690.500 127.942 L 688.750 131.383 692.361 134.692 L 695.971 138 710.985 138 L 726 138 726 130 L 726 122 710.122 122 C 698.619 122, 693.970 122.344, 693.247 123.250" stroke="none" fill="white" fill-rule="evenodd"/></svg>